HIERARCHY
ROOT Hips
{
	OFFSET 0.000000 0.000000 0.000000
	CHANNELS 6 Xposition Yposition Zposition Zrotation Yrotation Xrotation 
	JOINT LeftUpLeg_virtual
	{
		OFFSET 0.000000 0.000000 0.000000
		CHANNELS 3 Zrotation Yrotation Xrotation
		JOINT LeftUpLeg
		{
			OFFSET 10.205400 -3.823500 0.155100
			CHANNELS 3 Zrotation Yrotation Xrotation
			JOINT LeftLeg
			{
				OFFSET 0.708757 -12.982077 0.567790
				CHANNELS 3 Zrotation Yrotation Xrotation
				JOINT LeftFoot
				{
					OFFSET -0.708756 -10.717838 -2.184338
					CHANNELS 3 Zrotation Yrotation Xrotation
					JOINT LeftToeBase
					{
						OFFSET 0.108149 -7.191104 7.560241
						CHANNELS 3 Zrotation Yrotation Xrotation
						End Site
						{
							OFFSET 0.000000 0.000000 0.000000
						}
					}
				}
			}
		}
	}
	JOINT RightUpLeg_virtual
	{
		OFFSET 0.000000 0.000000 0.000000
		CHANNELS 3 Zrotation Yrotation Xrotation
		JOINT RightUpLeg
		{
			OFFSET -10.205400 -3.823500 0.005500
			CHANNELS 3 Zrotation Yrotation Xrotation
			JOINT RightLeg
			{
				OFFSET -0.708756 -12.982134 0.610632
				CHANNELS 3 Zrotation Yrotation Xrotation
				JOINT RightFoot
				{
					OFFSET 0.708754 -10.717769 -1.945823
					CHANNELS 3 Zrotation Yrotation Xrotation
					JOINT RightToeBase
					{
						OFFSET -0.108140 -7.191069 7.372968
						CHANNELS 3 Zrotation Yrotation Xrotation
						End Site
						{
							OFFSET 0.000000 0.000000 0.000000
						}
					}
				}
			}
		}
	}
	JOINT Spine_virtual
	{
		OFFSET 0.000000 0.000000 0.000000
		CHANNELS 3 Zrotation Yrotation Xrotation
		JOINT Spine
		{
			OFFSET 0.000000 6.876099 0.125700
			CHANNELS 3 Zrotation Yrotation Xrotation
			JOINT Spine1
			{
				OFFSET 0.000000 8.022060 0.146608
				CHANNELS 3 Zrotation Yrotation Xrotation
				JOINT Spine2
				{
					OFFSET 0.000000 9.168068 0.167552
					CHANNELS 3 Zrotation Yrotation Xrotation
					JOINT Neck_virtual
					{
						OFFSET 0.000000 0.000000 0.000000
						CHANNELS 3 Zrotation Yrotation Xrotation
						JOINT Neck
						{
							OFFSET 0.000000 10.314075 0.188496
							CHANNELS 3 Zrotation Yrotation Xrotation
							JOINT Head
							{
								OFFSET 0.000000 7.643700 -2.377400
								CHANNELS 3 Zrotation Yrotation Xrotation
								End Site
								{
									OFFSET 0.000000 0.000000 0.000000
								}
							}
						}
					}
					JOINT LeftShoulder_virtual
					{
						OFFSET 0.000000 0.000000 0.000000
						CHANNELS 3 Zrotation Yrotation Xrotation
						JOINT LeftShoulder
						{
							OFFSET 4.392200 8.824978 0.174984
							CHANNELS 3 Zrotation Yrotation Xrotation
							JOINT LeftArm
							{
								OFFSET 8.771219 -2.981674 -0.026999
								CHANNELS 3 Zrotation Yrotation Xrotation
								JOINT LeftForeArm
								{
									OFFSET 8.512804 0.000000 -0.000000
									CHANNELS 3 Zrotation Yrotation Xrotation
									JOINT LeftHand
									{
										OFFSET 18.484802 0.000000 -0.000000
										CHANNELS 3 Zrotation Yrotation Xrotation
										End Site
										{
											OFFSET 0.000000 0.000000 0.000000
										}
									}
								}
							}
						}
					}
					JOINT RightShoulder_virtual
					{
						OFFSET 0.000000 0.000000 0.000000
						CHANNELS 3 Zrotation Yrotation Xrotation
						JOINT RightShoulder
						{
							OFFSET -4.392200 8.824993 0.141379
							CHANNELS 3 Zrotation Yrotation Xrotation
							JOINT RightArm
							{
								OFFSET -8.771282 -2.981682 -0.094208
								CHANNELS 3 Zrotation Yrotation Xrotation
								JOINT RightForeArm
								{
									OFFSET -8.494598 0.000000 0.000000
									CHANNELS 3 Zrotation Yrotation Xrotation
									JOINT RightHand
									{
										OFFSET -18.483803 0.000000 0.000001
										CHANNELS 3 Zrotation Yrotation Xrotation
										End Site
										{
											OFFSET 0.000000 0.000000 0.000000
										}
									}
								}
							}
						}
					}
				}
			}
		}
	}
}
MOTION
Frames: 9
Frame Time: 0.033333
4.438177 34.951672 -4.124439 -179.951688 4.133134 179.886173 -0.651349 -2.229232 9.241657 -7.883649 -0.100047 -23.913684 12.408797 6.332531 16.835230 -4.870623 1.063765 3.059816 0.000000 0.000000 0.000000 3.350765 -1.466005 8.391041 2.924672 9.546792 -20.736039 -7.592061 -0.392134 16.977316 7.290885 1.810343 1.222898 0.000000 0.000000 0.000000 2.365720 0.666798 -3.505097 -1.306961 -2.416971 -8.258523 -0.609971 -2.667007 9.063446 -0.011345 0.057211 -0.032282 -1.242084 -0.187831 11.639167 -1.414732 -1.132430 13.590796 0.000000 0.000000 0.000000 0.208689 0.619860 8.637490 -17.171557 -9.105195 1.848090 -56.673143 22.196935 3.754451 -1.621024 -30.950439 1.149602 0.000000 0.000000 0.000000 -3.359995 1.544759 8.221511 23.454299 4.226269 3.935139 49.495502 -17.751096 10.830575 -5.116007 27.474045 -3.715421 0.000000 0.000000 0.000000 
4.401082 34.955471 -4.087202 -179.963573 4.000647 179.906459 -0.641388 -2.254198 9.236905 -8.097159 -0.130989 -24.129392 12.306957 6.503680 16.850502 -5.031160 0.902851 2.816083 0.000000 0.000000 0.000000 3.230987 -1.526350 8.261653 3.089942 9.272756 -20.968831 -7.553729 -0.452191 17.440386 6.924351 1.617526 1.891639 0.000000 0.000000 0.000000 2.370871 0.696071 -3.529144 -1.297879 -2.336564 -8.291143 -0.601278 -2.693010 9.031570 -0.022972 0.083731 -0.033126 -1.199074 -0.207784 11.540498 -1.423139 -1.117212 13.482649 0.000000 0.000000 0.000000 0.207407 0.525699 8.576480 -17.191181 -9.147684 1.821100 -56.480245 21.741868 3.805885 -1.607887 -30.856957 1.154274 0.000000 0.000000 0.000000 -3.320985 1.518493 8.163273 23.364551 4.290420 3.975827 49.417771 -17.369873 10.847414 -5.135272 27.462616 -3.718188 0.000000 0.000000 0.000000 
4.345581 34.959332 -4.001965 -179.980348 3.972632 179.907060 -0.673626 -2.225219 9.176242 -8.226115 -0.074183 -24.386629 12.443301 6.515094 16.988444 -5.105172 0.916757 3.076374 0.000000 0.000000 0.000000 3.204647 -1.468572 8.200318 3.031083 9.250639 -21.122894 -7.591790 -0.279594 17.483744 6.863204 1.597886 2.058635 0.000000 0.000000 0.000000 2.379830 0.615690 -3.526053 -1.250757 -2.245109 -8.344440 -0.540981 -2.550235 8.965546 -0.025656 -0.027134 -0.003400 -1.140627 -0.171315 11.400044 -1.456570 -1.101198 13.335896 0.000000 0.000000 0.000000 0.277880 0.648002 8.546506 -17.161294 -9.381351 1.849323 -56.052863 21.009766 4.056548 -1.585072 -30.638050 1.162785 0.000000 0.000000 0.000000 -3.279106 1.581865 8.146709 23.197071 4.479147 3.990520 49.439853 -16.941968 11.033330 -5.208603 27.315815 -3.705792 0.000000 0.000000 0.000000 
4.292071 34.966057 -3.909012 -179.952303 4.010156 179.907169 -0.688796 -2.194001 9.088817 -8.342291 0.024744 -24.630618 12.627264 6.483171 17.154466 -5.230207 0.951503 3.316241 0.000000 0.000000 0.000000 3.242744 -1.408860 8.112113 2.884183 9.261585 -21.336010 -7.618422 -0.312881 17.613415 6.984076 1.638676 2.231274 0.000000 0.000000 0.000000 2.385275 0.684696 -3.464404 -1.183224 -2.162544 -8.412113 -0.464601 -2.466115 8.893527 -0.020072 0.026149 -0.005041 -1.045381 -0.151162 11.290875 -1.545790 -1.111658 13.092364 0.000000 0.000000 0.000000 0.339977 0.575559 8.569614 -17.138551 -9.747493 1.918259 -55.548580 20.142694 4.433364 -1.569923 -30.471622 1.165391 0.000000 0.000000 0.000000 -3.210394 1.585022 8.069671 23.043451 4.516826 4.135231 49.445717 -16.619843 10.922543 -5.220527 27.297674 -3.698322 0.000000 0.000000 0.000000 
4.256147 34.976410 -3.799978 -179.916882 3.918339 179.834154 -0.721231 -2.227834 9.013100 -8.480425 0.064612 -24.805949 12.819622 6.316487 17.227311 -5.355675 1.040105 3.622400 0.000000 0.000000 0.000000 3.305727 -1.504489 8.039761 2.767344 9.306689 -21.507419 -7.676042 -0.092477 17.747321 6.994001 1.646595 2.516532 0.000000 0.000000 0.000000 2.386994 0.763433 -3.357976 -1.099037 -2.214739 -8.449641 -0.407107 -2.493191 8.840589 -0.013062 -0.052488 -0.013820 -0.974697 -0.082680 11.186156 -1.657076 -1.120088 12.836721 0.000000 0.000000 0.000000 0.392118 0.623954 8.529453 -17.082373 -9.853574 1.879803 -55.040273 19.401455 4.822390 -1.641950 -30.358422 1.235885 0.000000 0.000000 0.000000 -3.125660 1.739194 8.014924 22.854863 4.537162 4.237360 49.438907 -16.460338 10.858856 -5.255816 27.354947 -3.570583 0.000000 0.000000 0.000000 
4.232314 34.979172 -3.708116 -179.954625 3.876839 179.932386 -0.769148 -2.297593 8.867851 -8.623874 0.182310 -25.087601 12.992306 6.155901 17.279369 -5.516634 1.123966 3.915152 0.000000 0.000000 0.000000 3.321687 -1.458225 7.929536 2.717093 9.398327 -21.768072 -7.786643 0.096011 17.826208 6.929520 1.606590 2.726989 0.000000 0.000000 0.000000 2.328111 0.610919 -3.386293 -1.029663 -2.155152 -8.551296 -0.329457 -2.386984 8.804674 0.023155 0.012580 -0.015177 -0.919127 -0.024412 11.157897 -1.815423 -1.135376 12.575484 0.000000 0.000000 0.000000 0.442580 0.609017 8.590615 -17.077795 -10.183407 2.048776 -54.661014 18.788438 5.370661 -1.527525 -30.424852 1.162162 0.000000 0.000000 0.000000 -3.076613 1.666541 8.061576 22.688246 4.534102 4.308033 49.439102 -16.446143 10.571729 -5.285385 27.485130 -3.639153 0.000000 0.000000 0.000000 
4.210937 34.975338 -3.653119 -179.957712 3.814375 179.892935 -0.767772 -2.407453 8.799318 -8.813164 0.357146 -25.281107 13.172267 5.920196 17.509598 -5.644488 1.182027 3.970221 0.000000 0.000000 0.000000 3.355021 -1.504572 7.894421 2.674429 9.549608 -21.955148 -7.913510 0.277153 18.121682 6.901525 1.578743 2.702942 0.000000 0.000000 0.000000 2.307980 0.625730 -3.306097 -0.934684 -2.266894 -8.561672 -0.315934 -2.471980 8.800781 -0.022683 0.054566 -0.015310 -0.830747 -0.019733 11.121758 -1.934049 -1.105147 12.353218 0.000000 0.000000 0.000000 0.565984 0.797159 8.617662 -17.074448 -10.423545 2.126955 -54.369969 18.443015 5.787563 -1.514282 -30.595597 1.174989 0.000000 0.000000 0.000000 -2.993575 1.754745 8.087518 22.514735 4.510192 4.372321 49.390932 -16.489070 10.233368 -5.327397 27.608449 -3.550712 0.000000 0.000000 0.000000 
4.176449 34.964439 -3.619007 -179.963272 3.827264 179.931881 -0.775017 -2.459494 8.754041 -9.012901 0.561012 -25.514651 13.364007 5.800011 17.867633 -5.735157 1.166473 3.925042 0.000000 0.000000 0.000000 3.376943 -1.510392 7.798013 2.635195 9.754284 -22.134290 -8.078682 0.503117 18.487705 6.899790 1.524399 2.570315 0.000000 0.000000 0.000000 2.274469 0.625184 -3.284719 -0.845086 -2.224096 -8.591571 -0.293537 -2.439301 8.828278 -0.027629 0.059931 -0.018045 -0.787848 -0.008783 11.125436 -2.061834 -1.087894 12.211220 0.000000 0.000000 0.000000 0.607410 0.814510 8.659907 -17.046235 -10.627751 2.189727 -54.177627 18.357759 6.233611 -1.468065 -30.797733 1.137975 0.000000 0.000000 0.000000 -2.957717 1.763756 8.128413 22.410843 4.450502 4.436778 49.302023 -16.560104 9.985782 -5.351986 27.618088 -3.470961 0.000000 0.000000 0.000000 
4.124974 34.942524 -3.611538 -179.894656 3.932130 -179.935296 -0.716588 -2.432608 8.564226 -9.159899 0.617046 -25.779907 13.612173 5.835097 18.528416 -5.796314 1.050061 3.676428 0.000000 0.000000 0.000000 3.473520 -1.346145 7.727037 2.572495 9.916683 -22.351323 -8.195148 0.627374 18.926340 6.986506 1.491067 2.249581 0.000000 0.000000 0.000000 2.308052 0.584958 -3.322622 -0.704045 -2.004601 -8.661931 -0.339034 -2.286377 8.875509 -0.001132 0.021717 0.008941 -0.785894 0.052394 11.168480 -2.175493 -1.103127 12.201507 0.000000 0.000000 0.000000 0.612712 0.780655 8.720169 -17.008004 -10.812573 2.233779 -54.073429 18.480614 6.641963 -1.427844 -31.026448 1.111263 0.000000 0.000000 0.000000 -2.960380 1.751018 8.165031 22.409606 4.415093 4.503950 49.191098 -16.631137 9.812865 -5.373437 27.534248 -3.375217 0.000000 0.000000 0.000000 
